<svg xmlns="http://www.w3.org/2000/svg" version="1.1" xmlns:xlink="http://www.w3.org/1999/xlink" width="478.0428576280273" height="200" viewBox="0.9810715913772583 10.247727394104004 85.04035949707031 29.76227569580078"><path d="M7.19 10.35L7.19 10.35Q7.38 10.20 7.85 10.27Q8.32 10.35 8.79 10.74Q9.26 11.13 8.67 11.90Q8.09 12.68 7.34 13.98Q6.60 15.29 5.60 17.57Q4.59 19.84 4.75 20.49Q4.90 21.13 5.40 21.57Q5.90 22.01 7.05 21.98Q8.20 21.95 11.37 21.79Q14.53 21.62 11.84 21.87Q9.14 22.11 7.80 22.31Q6.46 22.52 6.88 23.65Q7.29 24.79 7.39 25.38Q7.50 25.98 7.40 26.65Q7.30 27.32 6.80 28.07Q6.29 28.81 5.71 29.35Q5.14 29.88 4.54 30.05Q3.95 30.21 3.20 30.03Q2.46 29.84 1.93 29.29Q1.41 28.73 1.17 27.65Q0.94 26.56 0.99 25.49Q1.04 24.41 1.92 22.07Q2.81 19.73 3.46 18.32Q4.10 16.91 5.23 14.26Q6.37 11.60 6.56 11.21Q6.76 10.82 7.19 10.35ZM4.53 23.81L4.53 23.81Q3.98 23.11 3.53 23.77Q3.07 24.43 2.98 25.10Q2.89 25.76 2.93 26.32Q2.97 26.88 3.26 27.44Q3.55 28.01 4.08 27.99Q4.61 27.97 4.98 27.55Q5.35 27.13 5.50 26.53Q5.64 25.94 5.36 25.21Q5.08 24.49 4.53 23.81ZM16.04 21.66L16.04 21.66Q16.48 21.54 17.02 21.62Q17.56 21.70 17.88 21.95Q18.20 22.21 18.50 22.95Q18.79 23.69 18.23 23.95Q17.68 24.20 17.23 23.77Q16.78 23.34 16.29 23.59Q15.80 23.85 15.32 24.11Q14.84 24.38 14.14 24.94Q13.44 25.51 12.70 26.39Q11.95 27.27 11.88 27.51Q11.80 27.75 12.26 27.44Q12.71 27.13 13.66 26.49Q14.61 25.86 16.04 25.20Q17.48 24.53 17.86 24.68Q18.24 24.82 18.52 25.21Q18.79 25.61 18.83 25.89Q18.87 26.17 18.74 26.34Q18.61 26.50 18.45 27.09Q18.28 27.68 18.48 28.22Q18.67 28.77 18.97 28.97Q19.28 29.18 19.80 29.09Q20.33 29.00 21.10 28.29Q21.88 27.58 21.04 28.62Q20.20 29.67 19.71 29.95Q19.22 30.23 18.95 30.22Q18.67 30.21 18.23 30.05Q17.79 29.88 17.40 29.53Q17.01 29.18 16.79 28.67Q16.56 28.16 16.48 27.92Q16.41 27.68 16.12 27.38Q15.84 27.09 15.43 27.26Q15.02 27.42 13.99 28.16Q12.97 28.91 12.08 29.38Q11.19 29.86 10.49 30.05Q9.79 30.23 9.58 30.18Q9.38 30.12 9.13 29.74Q8.89 29.36 8.85 28.91Q8.81 28.46 8.97 28.00Q9.14 27.54 10.22 26.16Q11.31 24.79 12.31 23.91Q13.32 23.03 14.45 22.41Q15.59 21.80 16.04 21.66ZM26.04 13.55L26.04 13.55Q26.45 13.14 27.16 13.44Q27.87 13.73 27.41 15.96Q26.95 18.18 26.41 20.41Q25.86 22.64 26.65 22.57Q27.44 22.50 28.12 21.95Q28.79 21.41 29.61 20.79Q30.43 20.18 31.16 19.72Q31.89 19.26 32.05 19.97Q32.21 20.68 31.95 21.16Q31.70 21.64 29.88 22.85Q28.07 24.06 28.15 24.37Q28.24 24.67 28.34 24.97Q28.44 25.27 29.15 26.30Q29.86 27.32 31.03 28.43Q32.19 29.53 32.07 29.79Q31.95 30.06 31.66 30.15Q31.37 30.23 30.92 30.30Q30.47 30.37 29.57 29.60Q28.67 28.83 27.84 27.70Q27.01 26.56 26.44 25.89Q25.86 25.21 25.63 25.05Q25.41 24.88 24.79 26.87Q24.18 28.85 23.71 29.84Q23.24 30.84 22.68 30.69Q22.11 30.55 21.95 30.39Q21.80 30.23 21.90 29.77Q22.01 29.30 22.62 28.02Q23.22 26.74 24.01 23.03Q24.80 19.32 25.01 17.80Q25.21 16.29 24.60 17.45Q23.98 18.61 22.55 20.63Q21.11 22.66 22.23 20.94Q23.34 19.22 23.81 18.37Q24.28 17.52 24.95 15.74Q25.63 13.96 26.04 13.55ZM38.77 21.66L38.77 21.66Q39.22 21.54 39.76 21.62Q40.29 21.70 40.62 21.95Q40.94 22.21 41.23 22.95Q41.52 23.69 40.97 23.95Q40.41 24.20 39.96 23.77Q39.51 23.34 39.02 23.59Q38.54 23.85 38.06 24.11Q37.58 24.38 36.88 24.94Q36.17 25.51 35.43 26.39Q34.69 27.27 34.61 27.51Q34.53 27.75 34.99 27.44Q35.45 27.13 36.40 26.49Q37.34 25.86 38.78 25.20Q40.21 24.53 40.60 24.68Q40.98 24.82 41.25 25.21Q41.52 25.61 41.56 25.89Q41.60 26.17 41.47 26.34Q41.35 26.50 41.18 27.09Q41.02 27.68 41.21 28.22Q41.41 28.77 41.71 28.97Q42.01 29.18 42.54 29.09Q43.07 29.00 43.84 28.29Q44.61 27.58 43.77 28.62Q42.93 29.67 42.44 29.95Q41.95 30.23 41.68 30.22Q41.41 30.21 40.97 30.05Q40.53 29.88 40.14 29.53Q39.75 29.18 39.52 28.67Q39.30 28.16 39.22 27.92Q39.14 27.68 38.86 27.38Q38.57 27.09 38.16 27.26Q37.75 27.42 36.73 28.16Q35.70 28.91 34.81 29.38Q33.93 29.86 33.22 30.05Q32.52 30.23 32.31 30.18Q32.11 30.12 31.87 29.74Q31.62 29.36 31.58 28.91Q31.54 28.46 31.71 28.00Q31.88 27.54 32.96 26.16Q34.04 24.79 35.05 23.91Q36.05 23.03 37.19 22.41Q38.32 21.80 38.77 21.66ZM51.00 23.09L51.00 23.09Q51.37 22.70 51.88 22.83Q52.38 22.97 52.60 23.28Q52.81 23.59 52.74 23.93Q52.68 24.26 52.71 25.15Q52.75 26.04 52.57 27.70Q52.38 29.36 52.21 30.47Q52.03 31.58 51.41 33.04Q50.78 34.49 49.77 35.77Q48.75 37.05 47.37 38.00Q46.00 38.95 44.92 39.40Q43.85 39.86 43.22 39.96Q42.60 40.06 42.01 39.96Q41.43 39.86 41.00 39.11Q40.57 38.36 41.41 36.92Q42.25 35.49 41.69 36.78Q41.13 38.07 42.33 38.21Q43.54 38.36 44.38 37.91Q45.21 37.46 46.33 36.54Q47.44 35.63 48.04 34.95Q48.63 34.28 49.35 32.97Q50.06 31.66 50.44 30Q50.82 28.34 50.87 27.54Q50.92 26.74 50.89 26.61Q50.86 26.48 50.53 26.72Q50.20 26.95 49.83 27.34Q49.47 27.73 49.05 28.10Q48.63 28.46 47.75 29.11Q46.88 29.77 46.29 29.79Q45.70 29.80 45.15 29.57Q44.59 29.34 44.33 28.85Q44.06 28.36 44.06 27.72Q44.06 27.09 44.16 26.81Q44.26 26.52 44.69 24.94Q45.12 23.36 45.63 23.13Q46.15 22.91 46.46 22.93Q46.76 22.95 46.93 23.27Q47.11 23.59 46.89 24.06Q46.68 24.53 46.35 25.64Q46.02 26.76 46.08 27.36Q46.15 27.97 46.63 27.78Q47.11 27.60 47.54 27.28Q47.97 26.95 48.33 26.55Q48.69 26.15 49.67 24.81Q50.64 23.48 51.00 23.09ZM60.29 21.66L60.29 21.66Q60.74 21.54 61.28 21.62Q61.82 21.70 62.14 21.95Q62.46 22.21 62.75 22.95Q63.05 23.69 62.49 23.95Q61.93 24.20 61.48 23.77Q61.04 23.34 60.55 23.59Q60.06 23.85 59.58 24.11Q59.10 24.38 58.40 24.94Q57.70 25.51 56.95 26.39Q56.21 27.27 56.13 27.51Q56.05 27.75 56.51 27.44Q56.97 27.13 57.92 26.49Q58.87 25.86 60.30 25.20Q61.74 24.53 62.12 24.68Q62.50 24.82 62.77 25.21Q63.05 25.61 63.09 25.89Q63.13 26.17 63.00 26.34Q62.87 26.50 62.71 27.09Q62.54 27.68 62.73 28.22Q62.93 28.77 63.23 28.97Q63.54 29.18 64.06 29.09Q64.59 29.00 65.36 28.29Q66.13 27.58 65.29 28.62Q64.45 29.67 63.96 29.95Q63.48 30.23 63.20 30.22Q62.93 30.21 62.49 30.05Q62.05 29.88 61.66 29.53Q61.27 29.18 61.04 28.67Q60.82 28.16 60.74 27.92Q60.66 27.68 60.38 27.38Q60.10 27.09 59.69 27.26Q59.28 27.42 58.25 28.16Q57.23 28.91 56.34 29.38Q55.45 29.86 54.75 30.05Q54.04 30.23 53.84 30.18Q53.63 30.12 53.39 29.74Q53.14 29.36 53.11 28.91Q53.07 28.46 53.23 28.00Q53.40 27.54 54.48 26.16Q55.57 24.79 56.57 23.91Q57.58 23.03 58.71 22.41Q59.84 21.80 60.29 21.66ZM67.95 21.95L67.95 21.95Q68.36 21.76 68.99 22.03Q69.63 22.30 69.27 23.05Q68.91 23.79 68.09 25.50Q67.27 27.21 67.92 26.44Q68.57 25.66 69.50 24.86Q70.43 24.06 70.84 23.83Q71.25 23.59 71.73 23.48Q72.21 23.36 72.81 23.54Q73.42 23.71 73.85 24.52Q74.28 25.33 74.31 27.20Q74.34 29.06 75.22 29.02Q76.11 28.98 76.95 28.37Q77.79 27.75 78.20 27.12Q78.61 26.48 78.55 26.78Q78.50 27.07 78.11 27.64Q77.71 28.20 76.45 29.39Q75.18 30.59 74.25 30.61Q73.32 30.63 72.90 29.86Q72.48 29.10 72.35 27.43Q72.23 25.76 71.91 25.73Q71.60 25.70 70.55 26.36Q69.49 27.01 68.61 28.07Q67.73 29.12 67.18 29.85Q66.62 30.59 66.17 30.74Q65.72 30.90 65.44 30.51Q65.16 30.12 65.24 29.55Q65.33 28.98 65.59 27.81Q65.84 26.64 66.31 25.34Q66.78 24.04 66.09 24.49Q65.41 24.94 64.42 25.85Q63.44 26.76 65.13 24.99Q66.82 23.22 67.00 22.93Q67.19 22.64 67.36 22.39Q67.54 22.15 67.95 21.95ZM84.82 21.93L84.82 21.93Q86.27 22.03 85.97 22.66Q85.66 23.28 85.35 24.84Q85.04 26.41 84.77 27.49Q84.49 28.57 83.98 29.78Q83.48 30.98 83.19 31.63Q82.91 32.29 82.49 33.11Q82.07 33.93 81.10 35.43Q80.14 36.93 78.88 38.02Q77.62 39.10 76.83 39.32Q76.04 39.53 75.05 39.18Q74.06 38.83 73.98 37.66Q73.91 36.48 76.74 33.83Q79.57 31.17 77.08 33.63Q74.59 36.09 74.55 37.01Q74.51 37.93 74.97 38.07Q75.43 38.20 75.89 38.03Q76.35 37.85 77.14 37.20Q77.93 36.54 78.47 35.98Q79.00 35.41 79.77 34.24Q80.53 33.07 81.14 31.74Q81.76 30.41 81.98 29.89Q82.21 29.38 82.79 27.73Q83.38 26.09 82.62 26.89Q81.86 27.70 80.62 28.64Q79.38 29.59 78.57 29.84Q77.77 30.10 77.35 29.98Q76.93 29.86 76.61 29.50Q76.29 29.14 76.49 28.08Q76.70 27.01 77.52 25.54Q78.34 24.06 79.43 23.27Q80.53 22.48 81.39 22.15Q82.25 21.82 82.73 21.84Q83.22 21.86 83.84 22.12Q84.45 22.38 84.82 21.93ZM82.73 24.00L82.73 24.00Q82.40 23.67 81.74 24.07Q81.07 24.47 80.25 25.28Q79.43 26.09 78.89 27.01Q78.34 27.93 79.41 27.29Q80.49 26.64 81.35 25.88Q82.21 25.12 82.62 24.63Q83.03 24.14 82.73 24.00Z" fill="black"></path></svg>